<svg width="512" height="512" xmlns="http://www.w3.org/2000/svg" xmlns:xlink="http://www.w3.org/1999/xlink"><use xlink:href="#path0_fill" transform="translate(-.006) scale(14.6286)" fill="#55ACEE"/><use xlink:href="#path1_fill" transform="translate(114.55 155.282) scale(14.6286)" fill="#F1F2F2"/><defs><path id="path0_fill" d="M17.5 35C27.165 35 35 27.165 35 17.5S27.165 0 17.5 0 0 7.835 0 17.5 7.835 35 17.5 35z"/><path id="path1_fill" d="M20.389 1.962a8.346 8.346 0 0 1-2.403.657 4.194 4.194 0 0 0 1.84-2.313 8.374 8.374 0 0 1-2.657 1.014 4.184 4.184 0 0 0-7.128 3.816A11.874 11.874 0 0 1 1.42.766 4.183 4.183 0 0 0 2.713 6.35 4.154 4.154 0 0 1 .82 5.825v.053A4.185 4.185 0 0 0 4.175 9.98a4.17 4.17 0 0 1-1.889.072 4.187 4.187 0 0 0 3.908 2.905A8.393 8.393 0 0 1 0 14.69a11.832 11.832 0 0 0 6.412 1.88c7.694 0 11.901-6.374 11.901-11.903 0-.18-.004-.361-.012-.54a8.484 8.484 0 0 0 2.088-2.165z"/></defs></svg>