<svg width="512" height="512" xmlns="http://www.w3.org/2000/svg" xmlns:xlink="http://www.w3.org/1999/xlink"><use xlink:href="#path0_fill" transform="translate(.067) scale(14.6286)" fill="#2F80ED"/><use xlink:href="#path1_fill" transform="translate(191.877 127.502) scale(14.6286)" fill="#FFF"/><defs><path id="path0_fill" d="M17.5 0C27.166 0 35 7.836 35 17.5 35 27.166 27.166 35 17.5 35S0 27.166 0 17.5C0 7.836 7.835 0 17.5 0z"/><path id="path1_fill" d="M6.519 3.332h2.255V0H6.123v.012c-3.213.114-3.87 1.92-3.929 3.816h-.007v1.664H0v3.262h2.187V17.5h3.297V8.754h2.7l.522-3.262h-3.22V4.487c0-.641.426-1.155 1.033-1.155z"/></defs></svg>